<?xml version="1.0" encoding="UTF-8" standalone="no"?>
<!-- Created with Inkscape (http://www.inkscape.org/) -->

<svg
   xmlns:dc="http://purl.org/dc/elements/1.1/"
   xmlns:cc="http://creativecommons.org/ns#"
   xmlns:rdf="http://www.w3.org/1999/02/22-rdf-syntax-ns#"
   xmlns:svg="http://www.w3.org/2000/svg"
   xmlns="http://www.w3.org/2000/svg"
   xmlns:sodipodi="http://sodipodi.sourceforge.net/DTD/sodipodi-0.dtd"
   xmlns:inkscape="http://www.inkscape.org/namespaces/inkscape"
   version="1.0"
   width="100%"
   height="100%"
   viewBox="0 0 28 25"
   id="Layer_1"
   xml:space="preserve"
   inkscape:version="0.47 r22583"
   sodipodi:docname="tex.svg"><metadata
   id="metadata26"><rdf:RDF><cc:Work
       rdf:about=""><dc:format>image/svg+xml</dc:format><dc:type
         rdf:resource="http://purl.org/dc/dcmitype/StillImage" /><dc:title></dc:title></cc:Work></rdf:RDF></metadata><sodipodi:namedview
   pagecolor="blue"
   bordercolor="#000000"
   borderopacity="1"
   objecttolerance="10"
   gridtolerance="10"
   guidetolerance="10"
   inkscape:pageopacity="1"
   inkscape:pageshadow="0"
   inkscape:window-width="1280"
   inkscape:window-height="962"
   id="namedview24"
   showgrid="false"
   inkscape:zoom="1.2286689"
   inkscape:cx="292.05002"
   inkscape:cy="17.617563"
   inkscape:window-x="-8"
   inkscape:window-y="-8"
   inkscape:window-maximized="1"
   inkscape:current-layer="Layer_1" /><defs
   id="defs44"><inkscape:perspective
     sodipodi:type="inkscape:persp3d"
     inkscape:vp_x="0 : 68 : 1"
     inkscape:vp_y="0 : 1000 : 0"
     inkscape:vp_z="879 : 68 : 1"
     inkscape:persp3d-origin="439.5 : 45.333333 : 1"
     id="perspective28" /></defs>
<path
   d="m 21.848965,4.7316252 0,0 0.71774,0 0.71774,0.02657 0.717978,0.05386 0.665067,0.07949 0.611206,0.05291 0.292316,0.02681 0.266217,0.05291 0.239167,0.05386 0.213543,0.05291 0.371801,0.106296 -0.07925,1.223363 -0.05433,1.03711 0,0.21259 0,0.21283 0.02729,0.21283 0.02705,0.21236 0.07925,0.3198401 0.07972,0.2916 0.07925,0.2666998 0.07996,0.10606 0.05386,0.13287 0.10606,0.18649 0.132871,0.15921 0.133108,0.10629 0.106059,0.1335899 0.133583,0.0795 0.07901,0.0531 0.186494,0.08 0.05362,0.0259 0,0.15992 0.05267,0.45175 0.02705,0.34571 0.0261,0.3196 0,0.39885 -0.0261,0.45223 -0.05386,0.58487 -0.02586,0.53149 -0.07996,0.452 -0.07996,0.37156 -0.07996,0.32031 -0.02586,0.2126 -0.05315,0.18554 -0.665304,0.23964 -0.451761,0.16016 -0.531721,0.21165 -0.292791,0.13334 -0.26503,0.13335 -0.638967,0.3196 -0.638255,0.37156 -0.319365,0.2126 -0.372038,0.23916 -0.265742,0.18674 -0.239642,0.21259 -0.238931,0.21259 -0.240117,0.23893 -0.238456,0.21378 -0.213305,0.2648 -0.211882,0.23964 -0.187443,0.23917 -0.186019,0.26598 -0.158971,0.26669 -0.106771,0.26503 -0.07996,0.15992 -0.05267,0.13334 -0.07948,0.29184 -0.08043,0.29232 -0.05244,0.29184 0,0.16016 0,0.15921 0,0.31936 0.02634,0.34594 0.05267,0.3196 0.05386,0.29161 0.05267,0.2935 0.07948,0.2394 0.07996,0.26598 0.106771,0.21307 -0.106771,0.0517 -0.159445,0.0809 -0.212356,0.079 -0.106772,0.0536 -0.159207,0 -0.292554,0.08 -0.186019,0 -0.212594,0.0259 -0.186494,0 -0.213068,0 -0.132871,-0.0259 -0.159208,0 -0.266691,-0.08 -0.291841,-0.0536 -0.319602,-0.13215 -0.133108,-0.0529 -0.133346,-0.0534 -0.291841,-0.16087 -0.292554,-0.21212 -0.292553,-0.18649 -0.265979,-0.23846 -0.26598,-0.24012 -0.265742,-0.26597 -0.239405,-0.26693 -0.239167,-0.29161 -0.239643,-0.31865 -0.106534,-0.15992 -0.105584,-0.15921 -0.213543,-0.34641 -0.239168,-0.45153 -0.238693,-0.47952 -0.426373,-0.90447 -0.398613,-0.904 -0.185545,-0.42471 -0.212831,-0.37275 -0.212593,-0.37061 -0.07996,-0.18602 -0.133583,-0.15992 -0.212119,-0.26622 -0.07996,-0.13263 -0.133108,-0.13335 -0.106771,-0.10558 -0.132871,-0.10677 -0.106297,-0.0536 -0.159208,-0.079 -0.106297,-0.0802 -0.133108,-0.0266 -0.160157,0 -0.132634,-0.0256 -0.133108,0.0256 -0.132871,0 -0.106771,0 -0.132397,0.0266 -0.07996,0.0532 -0.10606,0.0536 -0.107483,0.0527 -0.07901,0.0273 -0.159208,0.15873 -0.159445,0.13334 -0.107483,0.15992 -0.158259,0.13264 -0.1070079,0.15944 -0.133109,0.1343 -0.132396,0.13144 -0.133345,0.13335 -0.07925,0.0543 -0.07996,0.052 -0.186257,0.0797 -0.07925,0.0268 -0.106771,0.0263 -0.106534,0 -0.106297,0 -0.132871,0 -0.133346,-0.0263 -0.106534,0 -0.131921,-0.0534 -0.106772,-0.0534 -0.106534,-0.0795 -0.212593,-0.15992 -0.106772,-0.0792 -0.106059,-0.10654 -0.106534,-0.0802 -0.07996,-0.10654 -0.159208,-0.23869 -0.07996,-0.13264 -0.07996,-0.1331 -0.132871,-0.26646 -0.159919,-0.2655 -0.238693,-0.53172 -0.425662,-0.93081 -0.05339,-0.13335 -0.106296,-0.13287 -0.158971,-0.26645 -0.213068,-0.23917 -0.212119,-0.23893 -0.479285,-0.45247 -0.266216,-0.2126 -0.239168,-0.23893 -0.239405,-0.23916 -0.213305,-0.26646 -0.211882,-0.23893 -0.186731,-0.2935 -0.159208,-0.31842 -0.07996,-0.18602 -0.07996,-0.1592 -0.05267,-0.1872099 -0.02681,-0.21307 -0.05315,-0.21259 -0.02705,-0.23917 6.515185,0 0,-9.1730729 6.1170469,0 0,3.854919 0.105585,0.07996 0.106534,0.07996 0.133345,0.07996 0.186257,0.07972 0.185782,0.05267 0.239405,0.07996 0.212356,0.05315 0.266691,0.05267 -0.691878,3.084504 -1.941577,0 -0.664829,2.7397498 1.9952,0 -0.717978,3.3512 -0.106059,0.50515 -0.02729,0.29255 -0.05267,0.31865 0,0.34594 0,0.29256 0.0261,0.29279 0.02658,0.1331 0.02729,0.13264 0.07972,0.21259 0.07901,0.18721 0.107246,0.18483 0.106296,0.15992 0.13216,0.18578 0.106534,0.13287 0.160394,0.13335 0.159208,0.10653 0.106534,0.10583 0.212593,0.0536 0.159445,0.08 0.186732,0.0793 0.18507,0.0266 0.186731,0.0266 0.212594,0.0263 0.212593,0 0.292316,0 0.319365,-0.0263 0.292553,-0.0266 0.319365,-0.0529 0.557821,-0.10654 0.266691,-0.08 0.212356,-0.0524 0.239405,-0.08 0.212594,-0.0543 0.292553,-0.10582 0.292791,-0.13287 0.611443,-2.33971 -0.07949,0.0268 -0.133108,0.0263 -0.292079,0 -0.293028,0.0259 -0.265504,0.0266 -0.133346,0 -0.106534,-0.0266 -0.07901,-0.0259 -0.02681,0 -0.02657,-0.0263 -0.02657,-0.0268 -0.05339,-0.0266 -0.02657,-0.08 -0.05267,-0.0529 -0.02681,-0.13311 -0.02681,-0.10582 0.02681,-0.0802 0.02681,-0.26693 0.8238,-3.56284 1.941577,0 0.63778,-2.7395098 -1.994013,0 0.638018,-2.845102 z m -3.750046,1.091199 0,0 2.393101,0 -1.967202,8.7217998 -2.313853,0 1.887954,-8.7217998 z m 1.648786,-3.351192 0,0 0.160157,0 0.10606,0.02634 0.132396,0.0261 0.107009,0.02752 0.106534,0.05244 0.106059,0.07996 0.106297,0.05291 0.07948,0.07949 0.159208,0.186731 0.08044,0.106297 0.05267,0.107009 0.02705,0.105822 0.02657,0.159682 0.02586,0.106534 0,0.132634 0,0.133345 -0.02586,0.133109 -0.02657,0.106296 -0.02705,0.132634 -0.05267,0.106534 -0.08044,0.07901 -0.05244,0.133583 -0.07996,0.05362 -0.07996,0.106296 -0.106297,0.05267 -0.106297,0.05386 -0.106534,0.05267 -0.106059,0.02705 -0.132871,0.02563 -0.132634,0.02705 -0.160157,0 -0.132633,0 -0.106534,-0.02705 -0.133109,-0.02563 -0.106771,-0.02705 -0.132634,-0.05267 -0.106534,-0.05386 -0.07972,-0.05267 -0.106534,-0.07925 -0.07972,-0.08067 -0.07925,-0.10606 -0.05339,-0.106534 -0.05315,-0.07925 -0.02681,-0.15992 -0.05267,-0.106296 -0.02634,-0.133109 0,-0.133345 0,-0.132634 0.02634,-0.106534 0.05267,-0.132633 0.02681,-0.106535 0.05315,-0.107008 0.05339,-0.132397 0.106534,-0.07996 0.05244,-0.07901 0.106534,-0.107246 0.106059,-0.05291 0.106772,-0.07996 0.105822,-0.05244 0.133582,-0.02752 0.106297,-0.0261 0.132634,-0.02634 0.106771,0 0,-2.38e-4 z"
   style="fill:#ff0000;fill-rule:evenodd;opacity:1"
   id="path3" />


</svg>